# xmcd
#
# Track frame offsets: 
#        150
#        15448
#        32294
#        51230
#        71336
#        93309
#        125331
#
# Disc length: 3660 seconds
#
# Revision: 0
# Processed by: cddbd v1.5.2PL0 Copyright (c) Steve Scherf et al.
# Submitted via: ExactAudioCopy v1.1
#
DISCID=4a0e4a07
DTITLE=SwampDaWamp - SwampDaWamp 2.0
DYEAR=2008
DGENRE=Southern Rock
TTITLE0=Dance
TTITLE1=Fire In The Hole
TTITLE2=Shoebox
TTITLE3=Dance (Extended Version)
TTITLE4=Fire In The Hole (Extended Version)
TTITLE5=Shobox (Extended Version)
TTITLE6=Dance (Video)
EXTD=
EXTT0=
EXTT1=
EXTT2=
EXTT3=
EXTT4=
EXTT5=
EXTT6=
PLAYORDER=
